<mxfile host="app.diagrams.net" modified="2022-12-20T04:26:46.916Z" agent="5.0 (X11; Linux x86_64) AppleWebKit/537.36 (KHTML, like Gecko) Chrome/96.0.4664.110 Safari/537.36" etag="OlwwA7ONyUviaQMSKr0j" version="20.7.4" type="github">
  <diagram id="C5RBs43oDa-KdzZeNtuy" name="Page-1">
    <mxGraphModel dx="1397" dy="369" grid="1" gridSize="10" guides="1" tooltips="1" connect="1" arrows="1" fold="1" page="1" pageScale="1" pageWidth="827" pageHeight="1169" math="0" shadow="0">
      <root>
        <mxCell id="WIyWlLk6GJQsqaUBKTNV-0" />
        <mxCell id="WIyWlLk6GJQsqaUBKTNV-1" parent="WIyWlLk6GJQsqaUBKTNV-0" />
        <mxCell id="-RT6kspL_kNmGSeejEMf-26" value="" style="ellipse;whiteSpace=wrap;html=1;aspect=fixed;shadow=0;fillColor=none;strokeColor=#333333;fontSize=16;align=center;strokeWidth=2;" vertex="1" parent="WIyWlLk6GJQsqaUBKTNV-1">
          <mxGeometry x="404" y="570" width="12" height="12" as="geometry" />
        </mxCell>
        <mxCell id="-RT6kspL_kNmGSeejEMf-27" value="" style="ellipse;whiteSpace=wrap;html=1;aspect=fixed;shadow=0;fillColor=none;strokeColor=#333333;fontSize=16;align=center;strokeWidth=2;" vertex="1" parent="WIyWlLk6GJQsqaUBKTNV-1">
          <mxGeometry x="404" y="1068" width="12" height="12" as="geometry" />
        </mxCell>
        <mxCell id="-RT6kspL_kNmGSeejEMf-46" value="Research Proposal" style="shape=step;perimeter=stepPerimeter;whiteSpace=wrap;html=1;fixedSize=1;size=10;fillColor=#10739E;strokeColor=none;fontSize=17;fontColor=#FFFFFF;fontStyle=1;align=center;rounded=0;" vertex="1" parent="WIyWlLk6GJQsqaUBKTNV-1">
          <mxGeometry x="-80" y="550" width="200" height="30" as="geometry" />
        </mxCell>
        <mxCell id="-RT6kspL_kNmGSeejEMf-47" value="LABEL" style="shape=step;perimeter=stepPerimeter;whiteSpace=wrap;html=1;fixedSize=1;size=10;fillColor=#F2931E;strokeColor=none;fontSize=17;fontColor=#FFFFFF;fontStyle=1;align=center;rounded=0;" vertex="1" parent="WIyWlLk6GJQsqaUBKTNV-1">
          <mxGeometry x="120" y="550" width="200" height="30" as="geometry" />
        </mxCell>
        <mxCell id="-RT6kspL_kNmGSeejEMf-48" value="LABEL" style="shape=step;perimeter=stepPerimeter;whiteSpace=wrap;html=1;fixedSize=1;size=10;fillColor=#AE4132;strokeColor=none;fontSize=17;fontColor=#FFFFFF;fontStyle=1;align=center;rounded=0;" vertex="1" parent="WIyWlLk6GJQsqaUBKTNV-1">
          <mxGeometry x="320" y="550" width="200" height="30" as="geometry" />
        </mxCell>
        <mxCell id="-RT6kspL_kNmGSeejEMf-49" value="LABEL" style="shape=step;perimeter=stepPerimeter;whiteSpace=wrap;html=1;fixedSize=1;size=10;fillColor=#23445D;strokeColor=none;fontSize=17;fontColor=#FFFFFF;fontStyle=1;align=center;rounded=0;" vertex="1" parent="WIyWlLk6GJQsqaUBKTNV-1">
          <mxGeometry x="520" y="550" width="200" height="30" as="geometry" />
        </mxCell>
        <mxCell id="-RT6kspL_kNmGSeejEMf-50" value="LABEL" style="shape=step;perimeter=stepPerimeter;whiteSpace=wrap;html=1;fixedSize=1;size=10;fillColor=#12AAB5;strokeColor=none;fontSize=17;fontColor=#FFFFFF;fontStyle=1;align=center;rounded=0;" vertex="1" parent="WIyWlLk6GJQsqaUBKTNV-1">
          <mxGeometry x="720" y="550" width="200" height="30" as="geometry" />
        </mxCell>
        <mxCell id="-RT6kspL_kNmGSeejEMf-51" value="-Research proposal preparation by Team&amp;nbsp;&lt;br&gt;&lt;br&gt;-Submission of Research proposal to Doctor Shanthi for submitting to Hospital" style="shape=rect;fillColor=#B1DDF0;strokeColor=none;fontSize=12;html=1;whiteSpace=wrap;align=left;verticalAlign=top;spacing=5;rounded=0;" vertex="1" parent="WIyWlLk6GJQsqaUBKTNV-1">
          <mxGeometry x="-80" y="710" width="190" height="120" as="geometry" />
        </mxCell>
        <mxCell id="-RT6kspL_kNmGSeejEMf-52" value="-Research&amp;nbsp; proposal corrections by Doctor Shanthi&lt;br&gt;- Included Budget for dataset collection by Doctor Shanthi" style="shape=rect;fillColor=#B1DDF0;strokeColor=none;fontSize=12;html=1;whiteSpace=wrap;align=left;verticalAlign=top;spacing=5;rounded=0;" vertex="1" parent="WIyWlLk6GJQsqaUBKTNV-1">
          <mxGeometry x="-75" y="840" width="190" height="120" as="geometry" />
        </mxCell>
        <mxCell id="-RT6kspL_kNmGSeejEMf-53" value="-Budget verification by 3i Future Gen Team Management&lt;br&gt;&lt;br&gt;- Budget Approval by 3I Team Future Gen" style="shape=rect;fillColor=#B1DDF0;strokeColor=none;fontSize=12;html=1;whiteSpace=wrap;align=left;verticalAlign=top;spacing=5;rounded=0;" vertex="1" parent="WIyWlLk6GJQsqaUBKTNV-1">
          <mxGeometry x="-75" y="1100" width="190" height="120" as="geometry" />
        </mxCell>
        <mxCell id="-RT6kspL_kNmGSeejEMf-54" value="&amp;nbsp;- Lorem ipsum dolor sit amet&lt;br&gt;&amp;nbsp;- consectetur adipisicing elit&lt;br&gt;&amp;nbsp;- sed do eiusmod tempor&lt;br&gt;&amp;nbsp;- incididunt ut labore et dolore&lt;br&gt;&amp;nbsp;- magna aliqua." style="shape=rect;fillColor=#FCE7CD;strokeColor=none;fontSize=12;html=1;whiteSpace=wrap;align=left;verticalAlign=top;spacing=5;rounded=0;" vertex="1" parent="WIyWlLk6GJQsqaUBKTNV-1">
          <mxGeometry x="120" y="590" width="190" height="120" as="geometry" />
        </mxCell>
        <mxCell id="-RT6kspL_kNmGSeejEMf-55" value="&amp;nbsp;- Lorem ipsum dolor sit amet&lt;br&gt;&amp;nbsp;- consectetur adipisicing elit&lt;br&gt;&amp;nbsp;- sed do eiusmod tempor&lt;br&gt;&amp;nbsp;- incididunt ut labore et dolore&lt;br&gt;&amp;nbsp;- magna aliqua." style="shape=rect;fillColor=#FCE7CD;strokeColor=none;fontSize=12;html=1;whiteSpace=wrap;align=left;verticalAlign=top;spacing=5;rounded=0;" vertex="1" parent="WIyWlLk6GJQsqaUBKTNV-1">
          <mxGeometry x="120" y="720" width="190" height="120" as="geometry" />
        </mxCell>
        <mxCell id="-RT6kspL_kNmGSeejEMf-56" value="&amp;nbsp;- Lorem ipsum dolor sit amet&lt;br&gt;&amp;nbsp;- consectetur adipisicing elit&lt;br&gt;&amp;nbsp;- sed do eiusmod tempor&lt;br&gt;&amp;nbsp;- incididunt ut labore et dolore&lt;br&gt;&amp;nbsp;- magna aliqua." style="shape=rect;fillColor=#FCE7CD;strokeColor=none;fontSize=12;html=1;whiteSpace=wrap;align=left;verticalAlign=top;spacing=5;rounded=0;" vertex="1" parent="WIyWlLk6GJQsqaUBKTNV-1">
          <mxGeometry x="120" y="850" width="190" height="120" as="geometry" />
        </mxCell>
        <mxCell id="-RT6kspL_kNmGSeejEMf-57" value="&amp;nbsp;- Lorem ipsum dolor sit amet&lt;br&gt;&amp;nbsp;- consectetur adipisicing elit&lt;br&gt;&amp;nbsp;- sed do eiusmod tempor&lt;br&gt;&amp;nbsp;- incididunt ut labore et dolore&lt;br&gt;&amp;nbsp;- magna aliqua." style="shape=rect;fillColor=#FAD9D5;strokeColor=none;fontSize=12;html=1;whiteSpace=wrap;align=left;verticalAlign=top;spacing=5;rounded=0;" vertex="1" parent="WIyWlLk6GJQsqaUBKTNV-1">
          <mxGeometry x="320" y="590" width="190" height="120" as="geometry" />
        </mxCell>
        <mxCell id="-RT6kspL_kNmGSeejEMf-58" value="&amp;nbsp;- Lorem ipsum dolor sit amet&lt;br&gt;&amp;nbsp;- consectetur adipisicing elit&lt;br&gt;&amp;nbsp;- sed do eiusmod tempor&lt;br&gt;&amp;nbsp;- incididunt ut labore et dolore&lt;br&gt;&amp;nbsp;- magna aliqua." style="shape=rect;fillColor=#FAD9D5;strokeColor=none;fontSize=12;html=1;whiteSpace=wrap;align=left;verticalAlign=top;spacing=5;rounded=0;" vertex="1" parent="WIyWlLk6GJQsqaUBKTNV-1">
          <mxGeometry x="325" y="720" width="190" height="120" as="geometry" />
        </mxCell>
        <mxCell id="-RT6kspL_kNmGSeejEMf-59" value="&amp;nbsp;- Lorem ipsum dolor sit amet&lt;br&gt;&amp;nbsp;- consectetur adipisicing elit&lt;br&gt;&amp;nbsp;- sed do eiusmod tempor&lt;br&gt;&amp;nbsp;- incididunt ut labore et dolore&lt;br&gt;&amp;nbsp;- magna aliqua." style="shape=rect;fillColor=#FAD9D5;strokeColor=none;fontSize=12;html=1;whiteSpace=wrap;align=left;verticalAlign=top;spacing=5;rounded=0;" vertex="1" parent="WIyWlLk6GJQsqaUBKTNV-1">
          <mxGeometry x="320" y="850" width="190" height="120" as="geometry" />
        </mxCell>
        <mxCell id="-RT6kspL_kNmGSeejEMf-60" value="&amp;nbsp;- Lorem ipsum dolor sit amet&lt;br&gt;&amp;nbsp;- consectetur adipisicing elit&lt;br&gt;&amp;nbsp;- sed do eiusmod tempor&lt;br&gt;&amp;nbsp;- incididunt ut labore et dolore&lt;br&gt;&amp;nbsp;- magna aliqua." style="shape=rect;fillColor=#BAC8D3;strokeColor=none;fontSize=12;html=1;whiteSpace=wrap;align=left;verticalAlign=top;spacing=5;rounded=0;" vertex="1" parent="WIyWlLk6GJQsqaUBKTNV-1">
          <mxGeometry x="520" y="590" width="190" height="120" as="geometry" />
        </mxCell>
        <mxCell id="-RT6kspL_kNmGSeejEMf-61" value="&amp;nbsp;- Lorem ipsum dolor sit amet&lt;br&gt;&amp;nbsp;- consectetur adipisicing elit&lt;br&gt;&amp;nbsp;- sed do eiusmod tempor&lt;br&gt;&amp;nbsp;- incididunt ut labore et dolore&lt;br&gt;&amp;nbsp;- magna aliqua." style="shape=rect;fillColor=#BAC8D3;strokeColor=none;fontSize=12;html=1;whiteSpace=wrap;align=left;verticalAlign=top;spacing=5;rounded=0;" vertex="1" parent="WIyWlLk6GJQsqaUBKTNV-1">
          <mxGeometry x="520" y="720" width="190" height="120" as="geometry" />
        </mxCell>
        <mxCell id="-RT6kspL_kNmGSeejEMf-62" value="&amp;nbsp;- Lorem ipsum dolor sit amet&lt;br&gt;&amp;nbsp;- consectetur adipisicing elit&lt;br&gt;&amp;nbsp;- sed do eiusmod tempor&lt;br&gt;&amp;nbsp;- incididunt ut labore et dolore&lt;br&gt;&amp;nbsp;- magna aliqua." style="shape=rect;fillColor=#BAC8D3;strokeColor=none;fontSize=12;html=1;whiteSpace=wrap;align=left;verticalAlign=top;spacing=5;rounded=0;" vertex="1" parent="WIyWlLk6GJQsqaUBKTNV-1">
          <mxGeometry x="520" y="850" width="190" height="120" as="geometry" />
        </mxCell>
        <mxCell id="-RT6kspL_kNmGSeejEMf-63" value="&amp;nbsp;- Lorem ipsum dolor sit amet&lt;br&gt;&amp;nbsp;- consectetur adipisicing elit&lt;br&gt;&amp;nbsp;- sed do eiusmod tempor&lt;br&gt;&amp;nbsp;- incididunt ut labore et dolore&lt;br&gt;&amp;nbsp;- magna aliqua." style="shape=rect;fillColor=#B0E3E6;strokeColor=none;fontSize=12;html=1;whiteSpace=wrap;align=left;verticalAlign=top;spacing=5;rounded=0;" vertex="1" parent="WIyWlLk6GJQsqaUBKTNV-1">
          <mxGeometry x="720" y="590" width="190" height="120" as="geometry" />
        </mxCell>
        <mxCell id="-RT6kspL_kNmGSeejEMf-64" value="&amp;nbsp;- Lorem ipsum dolor sit amet&lt;br&gt;&amp;nbsp;- consectetur adipisicing elit&lt;br&gt;&amp;nbsp;- sed do eiusmod tempor&lt;br&gt;&amp;nbsp;- incididunt ut labore et dolore&lt;br&gt;&amp;nbsp;- magna aliqua." style="shape=rect;fillColor=#B0E3E6;strokeColor=none;fontSize=12;html=1;whiteSpace=wrap;align=left;verticalAlign=top;spacing=5;rounded=0;" vertex="1" parent="WIyWlLk6GJQsqaUBKTNV-1">
          <mxGeometry x="720" y="720" width="190" height="120" as="geometry" />
        </mxCell>
        <mxCell id="-RT6kspL_kNmGSeejEMf-65" value="&amp;nbsp;- Lorem ipsum dolor sit amet&lt;br&gt;&amp;nbsp;- consectetur adipisicing elit&lt;br&gt;&amp;nbsp;- sed do eiusmod tempor&lt;br&gt;&amp;nbsp;- incididunt ut labore et dolore&lt;br&gt;&amp;nbsp;- magna aliqua." style="shape=rect;fillColor=#B0E3E6;strokeColor=none;fontSize=12;html=1;whiteSpace=wrap;align=left;verticalAlign=top;spacing=5;rounded=0;" vertex="1" parent="WIyWlLk6GJQsqaUBKTNV-1">
          <mxGeometry x="720" y="850" width="190" height="120" as="geometry" />
        </mxCell>
        <mxCell id="-RT6kspL_kNmGSeejEMf-66" value="-Research proposal submission to Ethics Board&lt;br&gt;&lt;br&gt;-Research proposal Approval by Ethics Board" style="shape=rect;fillColor=#B1DDF0;strokeColor=none;fontSize=12;html=1;whiteSpace=wrap;align=left;verticalAlign=top;spacing=5;rounded=0;" vertex="1" parent="WIyWlLk6GJQsqaUBKTNV-1">
          <mxGeometry x="-80" y="1240" width="190" height="120" as="geometry" />
        </mxCell>
        <mxCell id="-RT6kspL_kNmGSeejEMf-67" value="&amp;nbsp;- Lorem ipsum dolor sit amet&lt;br&gt;&amp;nbsp;- consectetur adipisicing elit&lt;br&gt;&amp;nbsp;- sed do eiusmod tempor&lt;br&gt;&amp;nbsp;- incididunt ut labore et dolore&lt;br&gt;&amp;nbsp;- magna aliqua." style="shape=rect;fillColor=#FCE7CD;strokeColor=none;fontSize=12;html=1;whiteSpace=wrap;align=left;verticalAlign=top;spacing=5;rounded=0;" vertex="1" parent="WIyWlLk6GJQsqaUBKTNV-1">
          <mxGeometry x="125" y="980" width="190" height="120" as="geometry" />
        </mxCell>
        <mxCell id="-RT6kspL_kNmGSeejEMf-68" value="&amp;nbsp;- Lorem ipsum dolor sit amet&lt;br&gt;&amp;nbsp;- consectetur adipisicing elit&lt;br&gt;&amp;nbsp;- sed do eiusmod tempor&lt;br&gt;&amp;nbsp;- incididunt ut labore et dolore&lt;br&gt;&amp;nbsp;- magna aliqua." style="shape=rect;fillColor=#FAD9D5;strokeColor=none;fontSize=12;html=1;whiteSpace=wrap;align=left;verticalAlign=top;spacing=5;rounded=0;" vertex="1" parent="WIyWlLk6GJQsqaUBKTNV-1">
          <mxGeometry x="319" y="980" width="190" height="120" as="geometry" />
        </mxCell>
        <mxCell id="-RT6kspL_kNmGSeejEMf-69" value="-Budget Preparation for Echocardiography project" style="shape=rect;fillColor=#B1DDF0;strokeColor=none;fontSize=12;html=1;whiteSpace=wrap;align=left;verticalAlign=top;spacing=5;rounded=0;" vertex="1" parent="WIyWlLk6GJQsqaUBKTNV-1">
          <mxGeometry x="-80" y="970" width="190" height="120" as="geometry" />
        </mxCell>
        <mxCell id="-RT6kspL_kNmGSeejEMf-70" value="-Research by Internal team on Echocardiography under the guidance of Doctor Shanthi&amp;nbsp;&lt;br&gt;&lt;br&gt;-Identifying the process of Medical domain with continous&amp;nbsp;&lt;br&gt;&lt;br&gt;" style="shape=rect;fillColor=#B1DDF0;strokeColor=none;fontSize=12;html=1;whiteSpace=wrap;align=left;verticalAlign=top;spacing=5;rounded=0;" vertex="1" parent="WIyWlLk6GJQsqaUBKTNV-1">
          <mxGeometry x="-80" y="580" width="190" height="120" as="geometry" />
        </mxCell>
      </root>
    </mxGraphModel>
  </diagram>
</mxfile>
